<?xml version="1.0" encoding="UTF-8" standalone="no"?>
<!-- Created with Inkscape (http://www.inkscape.org/) -->

<svg
   xmlns:dc="http://purl.org/dc/elements/1.1/"
   xmlns:cc="http://creativecommons.org/ns#"
   xmlns:rdf="http://www.w3.org/1999/02/22-rdf-syntax-ns#"
   xmlns:svg="http://www.w3.org/2000/svg"
   xmlns="http://www.w3.org/2000/svg"
   xmlns:sodipodi="http://sodipodi.sourceforge.net/DTD/sodipodi-0.dtd"
   xmlns:inkscape="http://www.inkscape.org/namespaces/inkscape"
   width="343pt"
   height="340pt"
   id="svg3189"
   version="1.1"
   inkscape:version="0.48.1 "
   sodipodi:docname="New document 14">
  <defs
     id="defs3191" />
  <sodipodi:namedview
     pagecolor="#ffffff"
     bordercolor="#666666"
     borderopacity="1.0"
     inkscape:pageopacity="0.0"
     inkscape:pageshadow="2"
     inkscape:zoom="0.8"
     inkscape:cx="2.5"
     inkscape:cy="210"
     inkscape:document-units="pt"
     inkscape:current-layer="layer1"
     id="namedview3193"
     showgrid="false"
     inkscape:window-width="1428"
     inkscape:window-height="720"
     inkscape:window-x="175"
     inkscape:window-y="175"
     inkscape:window-maximized="0" />
  <metadata
     id="metadata3195">
    <rdf:RDF>
      <cc:Work
         rdf:about="">
        <dc:format>image/svg+xml</dc:format>
        <dc:type
           rdf:resource="http://purl.org/dc/dcmitype/StillImage" />
        <dc:title></dc:title>
      </cc:Work>
    </rdf:RDF>
  </metadata>
  <g
     inkscape:label="Layer 1"
     inkscape:groupmode="layer"
     id="layer1">
    <path
       style="fill:#00c0c0"
       inkscape:connector-curvature="0"
       id="path24"
       d="m 8.4158712,169.84708 c 0,-3.19029 0.4290615,-6.47347 1.3321865,-9.84415 5.9181133,-22.08692 27.5962663,-30.75706 53.1518643,-30.75706 12.046206,0 24.954158,1.92629 37.478928,5.28245 22.41785,6.00693 41.93529,14.44193 57.87178,23.7225 -9.28055,-15.9365 -17.71555,-35.45395 -23.72248,-57.8718 -3.35617,-12.524767 -5.28245,-25.432719 -5.28245,-37.478925 0,-25.555473 8.67055,-47.233501 30.75704,-53.1516844 3.37068,-0.9032166 6.65469,-1.3324311 9.84457,-1.3324311 27.56635,0 48.14376,32.0430395 57.53299,67.0835305 5.92481,22.112219 8.39311,42.96168 8.39311,61.22341 l -0.001,0.75558 c 9.16114,-16.00535 21.84639,-33.06901 38.2569,-49.479517 19.43824,-19.438233 43.58,-34.173353 64.52318,-34.173353 9.89225,0 19.07081,3.287326 26.70296,10.919465 7.63212,7.632139 10.91945,16.810694 10.91945,26.702948 0,20.943177 -14.73512,45.084937 -34.17334,64.523177 -16.41092,16.41092 -33.47458,29.09576 -49.47953,38.2569 l 0.75477,-10e-4 c 18.26214,0 39.11201,2.46829 61.22423,8.39311 35.04049,9.38881 67.08353,29.96622 67.08353,57.53259 0,3.18987 -0.42921,6.47387 -1.33243,9.84456 -5.91818,22.08651 -27.59621,30.75706 -53.15168,30.75706 -12.04621,0 -24.95416,-1.92628 -37.47893,-5.28245 -22.41785,-6.00693 -41.93529,-14.44193 -57.8718,-23.7225 9.28057,15.93651 17.71557,35.45393 23.7225,57.8718 3.35617,12.52477 5.28245,25.43272 5.28245,37.47893 0,25.5556 -8.67013,47.23374 -30.75706,53.15185 -3.37068,0.90313 -6.65386,1.33219 -9.84373,1.33219 -27.56677,0 -48.1446,-32.04275 -57.53382,-67.08346 -5.92482,-22.1118 -8.39311,-42.96167 -8.39311,-61.2234 l 0.001,-0.75559 c -9.16114,16.00535 -21.8464,33.06901 -38.25691,49.47952 -19.43823,19.43823 -43.57999,34.17335 -64.52317,34.17335 -9.892254,0 -19.070809,-3.28732 -26.702947,-10.91946 -7.632139,-7.63214 -10.919466,-16.81071 -10.919466,-26.70295 0,-20.94318 14.73512,-45.08494 34.173353,-64.52317 16.41092,-16.41093 33.47458,-29.09619 49.47952,-38.25691 l -0.75476,0.001 c -18.26214,0 -39.112014,-2.46828 -61.224232,-8.39311 C 40.458679,217.99084 8.4158712,197.41343 8.4158712,169.84708 z M 187.67941,215.00003 c 0,15.08886 12.23157,27.32043 27.32043,27.32043 15.08886,0 27.32044,-12.23157 27.32044,-27.32043 0,-15.08886 -12.23158,-27.32044 -27.32044,-27.32044 -15.08886,0 -27.32043,12.23158 -27.32043,27.32044 z" />
  </g>
</svg>
